<svg width="58" height="58" viewBox="0 0 58 58" fill="none" xmlns="http://www.w3.org/2000/svg">
<path d="M51.1667 0.5C52.8464 0.5 54.4573 1.16726 55.645 2.35499C56.8327 3.54272 57.5 5.15363 57.5 6.83333V51.1667C57.5 52.8464 56.8327 54.4573 55.645 55.645C54.4573 56.8327 52.8464 57.5 51.1667 57.5H6.83333C5.15363 57.5 3.54272 56.8327 2.35499 55.645C1.16726 54.4573 0.5 52.8464 0.5 51.1667V6.83333C0.5 5.15363 1.16726 3.54272 2.35499 2.35499C3.54272 1.16726 5.15363 0.5 6.83333 0.5H51.1667ZM49.5833 49.5833V32.8C49.5833 30.0621 48.4957 27.4363 46.5597 25.5003C44.6237 23.5643 41.9979 22.4767 39.26 22.4767C36.5683 22.4767 33.4333 24.1233 31.9133 26.5933V23.0783H23.0783V49.5833H31.9133V33.9717C31.9133 31.5333 33.8767 29.5383 36.315 29.5383C37.4908 29.5383 38.6184 30.0054 39.4498 30.8368C40.2813 31.6682 40.7483 32.7959 40.7483 33.9717V49.5833H49.5833ZM12.7867 18.1067C14.1976 18.1067 15.5508 17.5462 16.5485 16.5485C17.5462 15.5508 18.1067 14.1976 18.1067 12.7867C18.1067 9.84167 15.7317 7.435 12.7867 7.435C11.3673 7.435 10.0061 7.99883 9.00247 9.00247C7.99883 10.0061 7.435 11.3673 7.435 12.7867C7.435 15.7317 9.84167 18.1067 12.7867 18.1067ZM17.1883 49.5833V23.0783H8.41667V49.5833H17.1883Z" fill="white"/>
</svg>
